<?xml version="1.0" standalone="no"?>
<!DOCTYPE svg PUBLIC "-//W3C//DTD SVG 20010904//EN"
 "http://www.w3.org/TR/2001/REC-SVG-20010904/DTD/svg10.dtd">
<svg version="1.0" xmlns="http://www.w3.org/2000/svg"
 width="500.000000pt" height="500.000000pt" viewBox="0 0 500.000000 500.000000"
 preserveAspectRatio="xMidYMid meet">

<g transform="translate(0.000000,500.000000) scale(0.100000,-0.100000)"
fill="#000000" stroke="none">
<path d="M2335 4434 c-199 -18 -419 -72 -575 -141 -263 -116 -445 -240 -637
-435 -110 -112 -198 -221 -260 -323 -31 -50 -112 -204 -128 -240 -9 -22 -23
-53 -30 -70 -22 -49 -61 -174 -85 -270 -67 -274 -67 -627 0 -900 54 -219 186
-519 279 -631 4 -5 13 -20 20 -31 18 -34 167 -210 229 -270 251 -244 567 -419
897 -497 39 -9 79 -19 90 -21 69 -17 257 -35 364 -35 447 0 891 159 1237 442
52 43 230 223 269 273 22 28 42 52 45 55 26 26 142 217 189 314 90 182 150
373 182 581 15 102 15 435 0 540 -64 429 -270 830 -577 1125 -142 136 -249
214 -429 312 -178 97 -364 161 -595 204 -72 14 -403 26 -485 18z m375 -139
c172 -21 252 -40 390 -90 41 -14 84 -29 94 -32 33 -11 220 -110 277 -147 91
-61 102 -68 180 -133 190 -156 409 -437 479 -613 7 -19 17 -40 22 -46 13 -17
67 -170 89 -254 110 -406 70 -867 -107 -1237 -99 -207 -193 -340 -354 -503
-278 -282 -630 -461 -1014 -515 -120 -17 -389 -19 -507 -4 -446 58 -867 296
-1158 654 -113 138 -229 338 -276 475 -11 30 -22 60 -26 65 -13 18 -67 237
-80 325 -17 111 -17 421 0 530 61 397 242 750 526 1025 108 104 115 110 215
182 362 258 815 373 1250 318z"/>
<path d="M2305 4214 c-156 -24 -349 -75 -458 -121 -643 -273 -1057 -894 -1057
-1585 0 -651 371 -1247 956 -1537 106 -53 269 -111 381 -136 99 -22 293 -45
377 -45 73 0 255 21 356 41 233 46 484 165 705 333 63 48 237 224 292 296 156
202 273 458 318 690 9 47 20 107 26 133 17 89 11 391 -11 512 -22 121 -21 117
-56 230 -34 109 -40 123 -110 260 -83 163 -169 287 -288 413 -55 59 -226 199
-306 251 -96 63 -291 155 -404 191 -186 58 -272 72 -491 75 -110 2 -213 1
-230 -1z m445 -123 c57 -38 74 -69 74 -128 0 -59 -20 -95 -72 -128 -17 -11
-31 -25 -32 -31 0 -10 36 -71 82 -137 26 -38 16 -47 -37 -33 -55 14 -70 27
-117 104 l-37 60 -55 4 -56 3 0 -66 0 -67 -46 -4 c-25 -2 -47 -1 -50 1 -7 8
-4 437 3 445 4 4 75 6 158 4 139 -3 153 -5 185 -27z m-699 -88 c19 -21 81 -90
138 -153 57 -63 109 -120 115 -125 6 -6 22 -22 34 -37 l24 -26 -55 -12 -55
-13 -34 38 c-18 21 -36 42 -39 47 -5 8 -47 -2 -104 -27 -16 -7 -41 -16 -55
-20 -34 -10 -40 -22 -40 -80 0 -50 -1 -50 -50 -76 l-49 -26 -4 26 c-3 23 -4
22 -6 -6 -1 -41 7 -41 82 -6 l57 27 0 53 c0 29 2 53 4 53 12 0 56 -31 90 -62
45 -43 43 -61 -10 -83 -20 -8 -35 -18 -32 -21 4 -3 14 -1 25 4 100 53 335 99
457 89 155 -12 315 -54 439 -118 92 -46 120 -65 207 -139 183 -156 293 -337
351 -575 32 -131 32 -344 0 -470 -56 -217 -135 -360 -281 -505 -93 -93 -100
-99 -180 -152 -172 -113 -361 -168 -576 -169 -445 -2 -830 265 -997 691 -105
266 -81 624 58 875 26 48 112 174 125 185 3 3 26 28 50 55 l45 50 -62 -57
c-57 -54 -83 -72 -68 -48 3 6 2 10 -4 10 -5 0 -16 14 -25 30 -8 17 -11 28 -6
25 14 -9 90 65 90 87 0 12 -16 35 -35 54 -19 18 -35 38 -35 44 0 7 23 37 50
67 28 31 59 72 70 92 23 47 38 59 75 63 30 3 30 3 36 -57 3 -33 7 -46 8 -30 1
17 4 37 5 45 2 8 9 89 15 180 7 91 13 176 14 189 2 17 11 27 37 36 55 20 65
18 101 -22z m1072 -7 c20 -9 37 -18 37 -20 0 -4 -49 -127 -65 -161 -7 -16 -30
-70 -50 -120 -56 -140 -52 -135 -89 -123 -61 21 -61 18 31 240 48 114 89 206
92 204 3 -1 23 -10 44 -20z m-1435 -170 c37 -19 72 -84 72 -135 0 -38 -28
-104 -53 -126 -7 -5 -34 -34 -60 -64 l-48 -54 45 -43 c25 -23 46 -46 46 -51 0
-5 -15 -23 -33 -41 l-32 -31 -155 140 c-85 77 -156 148 -158 157 -1 10 10 31
25 48 15 17 57 64 93 104 36 40 79 81 95 91 36 23 124 25 163 5z m1781 -32
c65 -33 141 -107 168 -165 l21 -44 -31 -22 c-38 -28 -44 -28 -52 -4 -10 33
-71 102 -115 132 -96 65 -123 17 -41 -73 79 -87 111 -144 111 -201 0 -40 -5
-53 -29 -78 -25 -24 -37 -29 -81 -29 -28 0 -66 7 -86 15 -77 32 -188 150 -200
214 -5 24 -1 32 26 51 35 25 35 26 69 -40 25 -46 122 -137 156 -146 36 -9 59
14 50 49 -4 14 -32 53 -62 87 -80 87 -90 101 -101 144 -9 30 -8 46 2 71 29 70
103 84 195 39z m-1969 -2117 c21 -16 60 -72 60 -86 0 -6 -7 -11 -15 -11 -8 0
-15 6 -15 13 0 19 -53 67 -73 67 -23 0 -21 -16 7 -53 48 -62 43 -117 -10 -117
-28 0 -91 60 -100 96 -10 38 11 51 25 16 16 -38 66 -86 80 -78 15 9 14 32 -2
48 -25 26 -47 68 -47 88 0 35 54 45 90 17z m2094 -41 c35 -32 56 -58 51 -65
-4 -8 -30 -10 -83 -5 l-77 6 43 -42 c30 -30 40 -46 33 -53 -7 -7 -28 6 -68 44
-83 78 -82 83 16 75 45 -4 81 -5 81 -2 0 3 -18 22 -40 42 -22 20 -37 40 -34
45 9 15 17 10 78 -45z m-109 -226 c-8 -12 -36 9 -88 67 -23 25 -36 47 -31 54
5 8 27 -8 66 -49 33 -34 57 -66 53 -72z m-1819 96 c9 -23 -41 -171 -57 -171
-8 0 -12 7 -10 15 12 47 10 56 -14 73 -23 16 -30 17 -56 7 -21 -9 -33 -10 -41
-2 -11 11 -4 16 92 63 64 32 79 34 86 15z m1763 -143 c3 -2 0 -8 -6 -14 -8 -8
-18 -6 -38 7 -25 16 -27 16 -53 -3 -19 -14 -26 -29 -26 -53 -2 -65 -22 -41
-39 46 -24 120 -17 126 81 66 42 -25 79 -48 81 -49z m-1649 56 c0 -6 -21 -43
-46 -81 -33 -49 -50 -66 -57 -59 -12 12 -3 33 49 104 33 45 54 59 54 36z m85
-86 c4 -27 10 -61 14 -78 l8 -30 26 52 c19 37 31 51 42 47 12 -5 7 -21 -26
-84 -28 -55 -45 -77 -55 -73 -8 3 -14 15 -14 27 -1 11 -7 46 -14 76 l-12 54
-24 -48 c-28 -54 -38 -64 -46 -42 -5 13 32 96 59 134 19 26 36 12 42 -35z
m1338 -22 c20 -38 37 -74 37 -80 0 -23 -20 -9 -44 32 l-26 42 0 -47 c0 -55 -9
-59 -56 -23 -18 14 -35 25 -39 25 -3 0 6 -22 20 -49 19 -39 22 -50 10 -54 -9
-4 -25 18 -50 70 -44 91 -37 109 26 63 l44 -31 8 48 c15 94 20 95 70 4z
m-1116 -38 c38 -12 53 -22 53 -35 0 -21 -1 -21 -33 -9 -24 9 -26 7 -48 -55
-12 -35 -29 -64 -36 -64 -17 0 -17 6 7 75 11 32 20 60 20 62 0 2 -12 8 -26 13
-14 6 -22 14 -19 20 8 14 20 13 82 -7z m890 -33 c10 -20 10 -29 -2 -46 -12
-19 -11 -24 11 -45 16 -15 21 -26 14 -33 -7 -7 -19 -1 -39 18 -19 18 -37 27
-52 24 -21 -3 -24 -8 -21 -42 4 -53 -15 -43 -37 19 -35 100 -35 101 7 119 54
23 104 17 119 -14z m-209 -27 c-2 -13 -18 -20 -56 -26 -56 -9 -67 -29 -20 -35
39 -5 45 -32 7 -32 -26 0 -30 -3 -27 -22 3 -20 8 -23 38 -20 19 1 45 5 58 7
15 4 22 1 22 -9 0 -17 -18 -24 -85 -32 l-52 -6 -6 33 c-4 19 -9 57 -13 86 l-6
52 33 5 c53 9 83 13 97 15 8 0 12 -7 10 -16z m-207 -22 c30 -25 19 -36 -21
-23 -48 17 -100 -13 -100 -57 0 -39 84 -67 109 -37 9 11 6 15 -14 20 -14 4
-25 13 -25 22 0 11 9 14 38 12 30 -2 38 -7 40 -26 2 -13 -4 -34 -12 -48 -34
-51 -147 -21 -159 42 -16 84 80 147 144 95z m-297 -41 c35 -13 33 -30 -4 -30
-23 0 -30 4 -30 20 0 23 0 23 34 10z"/>
<path d="M2500 3961 l0 -71 93 0 c85 0 96 2 115 23 25 27 28 65 8 93 -12 16
-29 20 -115 22 l-101 4 0 -71z"/>
<path d="M1990 3848 l0 -87 33 11 c17 5 42 12 55 15 29 7 28 11 -13 56 -19 22
-44 51 -55 65 l-19 27 -1 -87z"/>
<path d="M2420 3475 c0 -3 -7 -72 -16 -154 -10 -103 -12 -165 -6 -199 16 -91
-8 -212 -57 -281 -12 -16 -21 -33 -21 -38 0 -6 -9 -18 -21 -29 -11 -10 -34
-48 -51 -84 -16 -36 -40 -86 -54 -111 -13 -26 -24 -49 -24 -53 0 -3 151 -6
335 -6 l335 0 -41 83 c-131 264 -183 461 -205 785 l-7 92 -83 0 c-46 0 -84 -2
-84 -5z"/>
<path d="M2014 3454 c-18 -14 -18 -15 4 -4 12 6 22 13 22 15 0 8 -5 6 -26 -11z"/>
<path d="M2325 3463 c-92 -21 -224 -70 -289 -108 -44 -25 -83 -45 -88 -45 -4
0 -8 -4 -8 -8 0 -4 -12 -15 -27 -24 -37 -22 -142 -124 -179 -174 -16 -21 -32
-41 -35 -44 -4 -3 -29 -48 -57 -100 -139 -263 -156 -536 -50 -820 12 -30 25
-59 29 -64 11 -12 61 27 177 138 163 157 267 298 365 497 88 180 134 324 167
524 5 33 14 84 20 114 12 63 13 121 3 120 -5 -1 -17 -3 -28 -6z m-111 -114 c7
-30 4 -46 -18 -92 -14 -31 -26 -62 -26 -70 0 -30 -85 -103 -153 -132 -63 -26
-71 -27 -115 -16 -26 7 -67 16 -92 19 -30 5 -46 12 -48 23 -4 22 86 129 156
185 79 63 207 125 252 121 31 -2 36 -6 44 -38z"/>
<path d="M2650 3448 c0 -40 29 -240 45 -308 36 -161 82 -294 143 -419 42 -85
102 -193 112 -201 4 -3 12 -15 18 -27 18 -33 147 -189 206 -248 61 -60 196
-175 206 -175 16 0 72 168 89 264 14 77 14 255 0 332 -63 361 -333 664 -683
768 -134 40 -136 40 -136 14z"/>
<path d="M2103 2423 c-20 -32 -39 -60 -43 -63 -3 -3 -17 -21 -30 -40 -44 -63
-54 -73 -203 -222 l-147 -148 44 -57 c54 -72 160 -172 226 -214 l25 -16 1 91
c1 72 7 104 27 152 171 420 788 438 982 29 30 -65 37 -92 43 -171 l7 -95 55
42 c30 22 75 59 98 82 49 47 132 151 132 164 0 5 -13 19 -28 30 -56 41 -186
170 -246 243 -70 85 -176 231 -176 242 0 5 -164 8 -365 8 l-365 0 -37 -57z"/>
<path d="M2385 2167 c-112 -32 -226 -133 -267 -237 -33 -81 -32 -204 2 -284
24 -57 28 -60 80 -78 177 -61 383 -63 582 -7 l77 23 28 65 c58 137 25 298 -83
407 -52 52 -111 88 -184 110 -53 16 -179 17 -235 1z m148 -159 c41 -88 42
-108 8 -177 -17 -33 -31 -67 -31 -76 0 -8 -4 -15 -10 -15 -5 0 -10 8 -10 18 0
9 -13 44 -30 77 -20 39 -27 67 -24 85 9 37 56 140 65 140 4 0 19 -24 32 -52z
m-140 -167 c27 -18 67 -71 67 -90 0 -5 -15 6 -34 25 -19 19 -44 34 -55 34 -29
0 -39 -29 -17 -46 24 -17 12 -34 -24 -34 -55 0 -78 65 -38 107 26 28 63 29
101 4z m314 -3 c13 -12 23 -31 23 -43 0 -29 -36 -65 -65 -65 -30 0 -43 20 -21
32 9 5 16 18 16 28 0 33 -47 25 -86 -14 -20 -20 -34 -28 -34 -20 0 8 20 35 45
59 51 51 85 58 122 23z m-189 -148 c9 -16 10 -26 1 -41 l-11 -21 -22 22 c-15
16 -17 24 -8 27 6 3 12 11 12 19 0 20 13 17 28 -6z"/>
<path d="M1577 3745 c-31 -16 -35 -20 -98 -95 l-47 -55 50 -44 51 -45 54 60
c30 32 62 69 70 81 21 31 9 75 -26 96 -24 14 -31 14 -54 2z"/>
<path d="M1605 1466 c-19 -14 -19 -15 -2 -22 22 -8 30 -1 25 21 -3 14 -5 14
-23 1z"/>
<path d="M3290 1390 c0 -13 5 -20 13 -17 6 2 12 10 12 17 0 7 -6 15 -12 18 -8
2 -13 -5 -13 -18z"/>
<path d="M2887 1228 c-18 -6 -27 -16 -25 -27 4 -17 25 -17 71 1 55 21 10 47
-46 26z"/>
</g>
</svg>
